<svg width="102" height="124" viewBox="0 0 102 124" fill="none" xmlns="http://www.w3.org/2000/svg">
<path fill-rule="evenodd" clip-rule="evenodd" d="M60 4L100 44V110C100 117.732 93.732 124 86 124H14C6.26801 124 0 117.732 0 110V18C0 10.268 6.26801 4 14 4H60Z" fill="#424242"/>
<mask id="mask0_0_98" style="mask-type:alpha" maskUnits="userSpaceOnUse" x="0" y="4" width="100" height="120">
<path fill-rule="evenodd" clip-rule="evenodd" d="M60 4L100 44V110C100 117.732 93.732 124 86 124H14C6.26801 124 0 117.732 0 110V18C0 10.268 6.26801 4 14 4H60Z" fill="white"/>
</mask>
<g mask="url(#mask0_0_98)">
</g>
<g opacity="0.4" filter="url(#filter0_d_0_98)">
<path fill-rule="evenodd" clip-rule="evenodd" d="M100 44H74.7071C66.9751 44 60 37.0249 60 29.2929V4L100 44Z" fill="white" fill-opacity="0.4"/>
</g>
<path fill-rule="evenodd" clip-rule="evenodd" d="M20.0349 82.824C20.0349 88.7366 24.9088 93.6105 30.8214 93.6105C36.734 93.6105 41.6079 88.7366 41.6079 82.824C41.6079 78.6692 45.0437 75.2335 49.1985 75.2335C53.3533 75.2335 56.789 78.6692 56.789 82.824C56.789 86.9788 53.3533 90.4145 49.1985 90.4145C47.6804 90.4145 46.1623 89.9351 44.8839 89.0562C44.1648 88.5768 43.126 88.7366 42.6466 89.4557C42.1672 90.1748 42.327 91.2135 43.0461 91.6929C44.804 92.9713 46.9613 93.6105 49.1985 93.6105C55.1111 93.6105 59.985 88.7366 59.985 82.824C59.985 76.8315 55.1111 72.0375 49.1985 72.0375C43.2859 72.0375 38.4119 76.9114 38.4119 82.824C38.4119 86.9788 34.9762 90.4145 30.8214 90.4145C26.6666 90.4145 23.2309 86.9788 23.2309 82.824C23.2309 78.6692 26.6666 75.2335 30.8214 75.2335C32.2596 75.2335 33.6978 75.633 34.8963 76.432C35.6953 76.9114 36.6541 76.6717 37.1335 75.9526C37.6129 75.1536 37.3732 74.1948 36.6541 73.7154C34.8963 72.5968 32.8988 72.0375 30.8214 72.0375C24.9088 72.0375 20.0349 76.9114 20.0349 82.824Z" fill="white"/>
<defs>
<filter id="filter0_d_0_98" x="58" y="0" width="44" height="44" filterUnits="userSpaceOnUse" color-interpolation-filters="sRGB">
<feFlood flood-opacity="0" result="BackgroundImageFix"/>
<feColorMatrix in="SourceAlpha" type="matrix" values="0 0 0 0 0 0 0 0 0 0 0 0 0 0 0 0 0 0 127 0" result="hardAlpha"/>
<feOffset dy="-2"/>
<feGaussianBlur stdDeviation="1"/>
<feColorMatrix type="matrix" values="0 0 0 0 0 0 0 0 0 0 0 0 0 0 0 0 0 0 0.0909637 0"/>
<feBlend mode="normal" in2="BackgroundImageFix" result="effect1_dropShadow_0_98"/>
<feBlend mode="normal" in="SourceGraphic" in2="effect1_dropShadow_0_98" result="shape"/>
</filter>
</defs>
</svg>
